<svg id="svg" version="1.1" xmlns="http://www.w3.org/2000/svg" xmlns:xlink="http://www.w3.org/1999/xlink" width="400" height="45.32019704433498" viewBox="0, 0, 400,45.32019704433498"><g id="svgg"><path id="path0" d="M1.244 1.375 C 1.200 1.490,1.184 11.108,1.207 22.750 L 1.250 43.917 200.000 43.917 L 398.750 43.917 398.750 22.583 L 398.750 1.250 200.036 1.208 C 41.153 1.175,1.307 1.208,1.244 1.375 M396.967 3.033 C 397.257 3.324,397.257 41.843,396.967 42.133 C 396.675 42.425,3.325 42.425,3.033 42.133 C 2.743 41.843,2.743 3.324,3.033 3.033 C 3.325 2.742,396.675 2.742,396.967 3.033 M22.968 14.875 C 22.624 15.149,22.373 25.973,22.704 26.304 C 22.812 26.412,23.252 26.500,23.682 26.500 C 24.540 26.500,24.667 26.637,24.667 27.564 C 24.667 28.463,25.757 28.886,26.405 28.238 C 27.085 27.558,26.510 26.333,25.510 26.333 L 24.872 26.333 24.807 20.846 C 24.747 15.762,24.719 15.334,24.428 15.013 C 24.078 14.626,23.367 14.558,22.968 14.875 M40.631 14.958 C 40.419 15.202,40.363 16.127,40.294 20.583 C 40.177 28.111,40.232 28.491,41.426 28.497 C 42.433 28.502,42.490 28.349,42.539 25.500 L 42.583 22.917 43.289 22.823 C 44.184 22.703,44.225 22.656,44.330 21.615 L 44.417 20.750 46.153 20.786 C 48.347 20.832,48.184 20.541,48.288 24.608 C 48.384 28.386,48.415 28.500,49.320 28.500 C 50.306 28.500,50.335 28.407,50.319 25.258 C 50.298 21.255,50.219 20.762,49.583 20.704 C 48.442 20.600,48.333 20.530,48.333 19.903 C 48.333 18.749,48.196 18.667,46.265 18.667 C 44.333 18.667,44.221 18.724,44.137 19.752 C 44.087 20.370,44.044 20.420,43.531 20.470 C 42.617 20.557,42.560 20.409,42.454 17.657 C 42.394 16.091,42.283 15.057,42.158 14.907 C 41.881 14.573,40.939 14.604,40.631 14.958 M66.262 14.929 C 66.062 15.129,66.000 15.553,66.000 16.729 C 66.000 18.463,65.895 18.667,65.000 18.667 C 64.258 18.667,64.000 18.909,64.000 19.605 C 64.000 20.289,64.377 20.667,65.062 20.667 C 65.950 20.667,66.000 20.824,66.000 23.596 C 66.000 26.437,66.004 26.447,67.170 26.530 L 67.917 26.583 67.970 27.330 C 68.038 28.288,68.227 28.500,69.015 28.500 C 70.513 28.500,70.343 26.446,68.833 26.305 L 68.250 26.250 68.250 23.583 L 68.250 20.917 68.833 20.862 C 69.635 20.787,70.000 20.412,70.000 19.667 C 70.000 18.921,69.635 18.546,68.833 18.471 L 68.250 18.417 68.076 16.698 C 67.958 15.525,67.825 14.930,67.660 14.825 C 67.281 14.586,66.551 14.640,66.262 14.929 M72.177 14.904 C 72.068 15.035,72.003 15.466,72.031 15.863 L 72.083 16.583 72.917 16.583 L 73.750 16.583 73.802 15.863 C 73.879 14.786,72.802 14.151,72.177 14.904 M117.442 14.971 C 117.229 15.207,117.167 15.614,117.167 16.771 C 117.167 18.428,117.051 18.667,116.250 18.667 C 114.801 18.667,114.960 20.577,116.419 20.696 L 117.083 20.750 117.167 23.451 C 117.259 26.435,117.267 26.457,118.333 26.531 L 119.083 26.583 119.176 27.387 C 119.277 28.270,119.495 28.494,120.258 28.497 C 121.676 28.505,121.509 26.407,120.083 26.300 L 119.417 26.250 119.417 23.583 L 119.417 20.917 120.081 20.863 C 121.531 20.745,121.705 18.500,120.265 18.500 C 119.496 18.500,119.390 18.300,119.253 16.583 C 119.100 14.672,118.332 13.988,117.442 14.971 M123.435 14.882 C 123.162 15.082,123.141 15.572,123.140 21.557 C 123.138 28.643,123.118 28.502,124.145 28.497 C 125.167 28.493,125.241 28.366,125.333 26.465 L 125.417 24.750 125.969 24.697 C 126.703 24.627,127.000 24.907,127.000 25.669 C 127.000 26.390,127.167 26.500,128.264 26.500 L 129.000 26.500 129.000 27.238 C 129.000 28.332,130.112 28.988,130.800 28.300 C 131.509 27.591,130.903 26.500,129.800 26.500 L 129.000 26.500 129.000 25.700 C 129.000 24.715,128.800 24.500,127.883 24.500 L 127.167 24.500 127.167 23.583 L 127.167 22.667 127.761 22.667 C 128.758 22.667,129.000 22.438,129.000 21.494 L 129.000 20.667 129.800 20.667 C 130.757 20.667,131.000 20.464,131.000 19.667 C 131.000 18.903,130.757 18.667,129.973 18.667 C 129.231 18.667,129.000 18.979,129.000 19.981 L 129.000 20.650 128.042 20.700 L 127.083 20.750 127.000 21.500 L 126.917 22.250 126.167 22.250 L 125.417 22.250 125.306 18.779 C 125.176 14.708,124.786 13.895,123.435 14.882 M24.294 20.625 L 24.250 26.083 23.625 26.135 L 23.000 26.187 23.000 20.677 L 23.000 15.167 23.669 15.167 L 24.338 15.167 24.294 20.625 M42.000 17.750 C 42.000 20.744,42.106 21.000,43.343 21.000 L 44.020 21.000 43.968 21.625 C 43.918 22.238,43.902 22.251,43.167 22.302 C 42.100 22.376,42.092 22.398,42.000 25.383 L 41.917 28.083 41.400 28.134 L 40.883 28.184 40.782 26.980 C 40.727 26.318,40.728 23.389,40.784 20.472 L 40.887 15.167 41.443 15.167 L 42.000 15.167 42.000 17.750 M67.667 16.821 C 67.667 18.737,67.809 19.000,68.845 19.000 C 69.498 19.000,69.500 19.002,69.500 19.667 L 69.500 20.333 68.770 20.333 C 67.721 20.333,67.681 20.441,67.629 23.428 L 67.583 26.083 67.000 26.083 L 66.417 26.083 66.333 23.305 C 66.238 20.142,66.318 20.355,65.181 20.221 C 63.933 20.073,63.919 19.119,65.163 19.030 C 66.283 18.951,66.333 18.860,66.333 16.896 L 66.333 15.167 67.000 15.167 L 67.667 15.167 67.667 16.821 M73.500 15.750 C 73.500 16.306,73.472 16.333,72.917 16.333 C 72.361 16.333,72.333 16.306,72.333 15.750 C 72.333 15.194,72.361 15.167,72.917 15.167 C 73.472 15.167,73.500 15.194,73.500 15.750 M118.833 16.713 C 118.833 18.663,119.021 19.000,120.103 19.000 L 120.853 19.000 120.802 19.625 C 120.751 20.237,120.733 20.252,119.965 20.340 C 118.889 20.464,118.923 20.368,118.864 23.430 L 118.811 26.167 118.250 26.167 L 117.689 26.167 117.636 23.425 C 117.577 20.358,117.570 20.338,116.431 20.209 C 115.279 20.080,115.229 19.002,116.375 18.997 C 117.521 18.993,117.576 18.903,117.640 16.923 L 117.697 15.167 118.265 15.167 L 118.833 15.167 118.833 16.713 M124.833 18.800 C 124.833 22.856,124.827 22.833,125.950 22.833 L 126.667 22.833 126.667 23.478 C 126.667 24.120,126.663 24.124,125.908 24.209 C 124.902 24.322,124.929 24.269,124.833 26.305 L 124.750 28.083 124.167 28.083 L 123.583 28.083 123.540 21.625 L 123.496 15.167 124.165 15.167 L 124.833 15.167 124.833 18.800 M13.033 18.867 C 12.764 19.136,12.779 20.247,13.055 20.476 C 13.180 20.581,14.402 20.708,15.888 20.772 L 18.500 20.885 18.500 21.584 L 18.500 22.282 15.980 22.396 C 12.931 22.533,12.833 22.573,12.833 23.673 L 12.833 24.500 12.156 24.500 C 11.146 24.500,10.833 24.730,10.833 25.473 C 10.833 26.298,11.069 26.500,12.033 26.500 L 12.833 26.500 12.833 27.313 C 12.833 28.520,12.844 28.523,16.795 28.625 C 21.302 28.741,20.900 29.142,20.800 24.643 C 20.715 20.801,20.677 20.667,19.680 20.667 C 18.910 20.667,18.667 20.427,18.667 19.667 C 18.667 19.337,18.577 18.977,18.467 18.867 C 18.187 18.587,13.313 18.587,13.033 18.867 M28.688 18.961 C 28.601 19.122,28.508 21.681,28.482 24.647 C 28.427 30.635,28.403 30.500,29.543 30.500 C 30.554 30.500,30.667 30.311,30.667 28.611 C 30.667 26.585,30.543 26.667,33.611 26.667 C 36.506 26.667,36.500 26.670,36.500 25.261 L 36.500 24.500 37.411 24.500 C 38.581 24.500,38.700 24.299,38.559 22.555 C 38.426 20.898,38.307 20.667,37.591 20.667 C 36.656 20.667,36.500 20.537,36.500 19.766 C 36.500 18.758,36.334 18.667,34.500 18.667 C 32.638 18.667,32.500 18.749,32.500 19.867 L 32.500 20.667 31.762 20.667 C 30.875 20.667,30.500 20.351,30.500 19.605 C 30.500 18.695,29.097 18.196,28.688 18.961 M54.367 18.867 C 53.701 19.532,54.330 20.655,55.387 20.689 C 55.770 20.701,56.946 20.757,58.000 20.814 L 59.917 20.917 59.917 21.583 L 59.917 22.250 57.337 22.384 C 54.355 22.538,54.167 22.621,54.167 23.776 L 54.167 24.500 53.359 24.500 C 52.408 24.500,52.000 24.840,52.000 25.632 C 52.000 26.276,52.364 26.500,53.406 26.500 L 54.167 26.500 54.167 27.313 C 54.167 28.515,54.185 28.521,58.045 28.624 C 62.561 28.745,62.170 29.055,62.152 25.369 C 62.144 23.745,62.088 22.042,62.027 21.583 L 61.917 20.750 61.083 20.667 L 60.250 20.583 60.162 19.833 C 60.114 19.421,60.016 18.990,59.944 18.875 C 59.763 18.586,54.655 18.578,54.367 18.867 M72.167 18.826 C 71.836 19.041,71.882 28.155,72.215 28.367 C 72.529 28.566,73.578 28.522,73.800 28.300 C 74.018 28.082,74.063 21.394,73.859 19.667 L 73.750 18.750 73.083 18.707 C 72.717 18.683,72.304 18.736,72.167 18.826 M75.992 18.927 C 75.831 19.120,75.756 20.331,75.698 23.621 C 75.612 28.600,75.589 28.500,76.833 28.500 C 77.991 28.500,77.991 28.497,78.040 24.500 L 78.083 20.917 78.833 20.917 L 79.583 20.917 79.632 22.491 C 79.688 24.338,79.784 24.500,80.820 24.500 C 81.953 24.500,82.010 24.386,81.888 22.387 L 81.783 20.667 82.697 20.667 L 83.611 20.667 83.598 24.233 C 83.582 28.474,83.913 29.183,85.511 28.327 C 85.852 28.145,85.966 23.979,85.692 21.667 L 85.583 20.750 84.667 20.667 L 83.750 20.583 83.698 19.753 C 83.640 18.834,83.495 18.673,82.729 18.669 C 82.063 18.666,81.869 18.910,81.803 19.837 C 81.712 21.122,79.833 21.068,79.833 19.780 C 79.833 19.388,79.743 18.977,79.633 18.867 C 79.314 18.547,76.265 18.597,75.992 18.927 M89.867 18.867 C 89.757 18.977,89.667 19.427,89.667 19.867 L 89.667 20.667 88.854 20.667 C 87.714 20.667,87.670 20.768,87.553 23.609 C 87.437 26.448,87.436 26.448,88.754 26.531 L 89.583 26.583 89.634 27.362 C 89.708 28.513,89.736 28.522,93.574 28.625 C 97.497 28.730,97.500 28.729,97.500 27.500 C 97.500 26.344,97.504 26.346,93.487 26.295 L 89.917 26.250 89.863 25.600 C 89.788 24.683,89.832 24.672,93.771 24.669 C 97.997 24.666,97.762 24.790,97.601 22.660 C 97.452 20.683,97.443 20.667,96.571 20.667 C 95.741 20.667,95.500 20.392,95.500 19.445 C 95.500 19.074,95.406 18.833,95.236 18.768 C 94.722 18.570,90.077 18.656,89.867 18.867 M101.700 18.867 C 101.590 18.977,101.500 19.427,101.500 19.867 L 101.500 20.667 100.700 20.667 C 99.736 20.667,99.500 20.869,99.500 21.694 C 99.500 22.437,99.812 22.667,100.822 22.667 L 101.500 22.667 101.500 23.396 C 101.500 24.458,101.642 24.516,104.536 24.641 L 107.083 24.750 107.133 25.523 L 107.183 26.296 103.550 26.417 C 99.602 26.548,99.500 26.576,99.500 27.500 C 99.500 28.488,99.625 28.524,103.407 28.625 C 107.280 28.728,107.333 28.715,107.333 27.596 C 107.333 26.743,107.555 26.500,108.333 26.500 C 109.091 26.500,109.333 26.257,109.333 25.500 C 109.333 24.721,109.090 24.500,108.234 24.500 C 107.449 24.500,107.333 24.349,107.333 23.326 C 107.333 22.345,107.077 22.274,104.059 22.415 L 101.500 22.535 101.500 21.604 L 101.500 20.673 105.160 20.780 C 108.015 20.863,108.876 20.839,109.076 20.673 C 109.385 20.416,109.425 19.158,109.133 18.867 C 108.850 18.584,101.983 18.584,101.700 18.867 M18.333 19.667 L 18.333 20.333 16.625 20.332 C 13.633 20.329,13.167 20.225,13.167 19.560 L 13.167 19.000 15.750 19.000 L 18.333 19.000 18.333 19.667 M30.167 19.738 C 30.167 20.694,30.475 21.000,31.439 21.000 L 32.187 21.000 32.135 21.625 C 32.084 22.244,32.076 22.250,31.293 22.301 C 30.335 22.362,30.090 22.702,30.213 23.795 C 30.323 24.774,30.442 24.828,32.500 24.832 C 35.543 24.839,36.000 24.940,36.000 25.607 L 36.000 26.167 33.343 26.167 C 30.088 26.167,30.167 26.110,30.167 28.454 L 30.167 30.000 29.476 30.000 L 28.786 30.000 28.893 28.976 C 28.952 28.412,29.000 25.937,29.000 23.476 L 29.000 19.000 29.583 19.000 C 30.162 19.000,30.167 19.006,30.167 19.738 M36.000 19.667 L 36.000 20.333 35.292 20.332 C 33.481 20.328,32.833 20.154,32.833 19.671 C 32.833 19.027,32.901 19.000,34.528 19.000 L 36.000 19.000 36.000 19.667 M47.833 19.667 L 47.833 20.333 47.125 20.332 C 45.176 20.328,44.667 20.168,44.667 19.560 L 44.667 19.000 46.250 19.000 L 47.833 19.000 47.833 19.667 M59.667 19.667 L 59.667 20.333 57.958 20.332 C 55.130 20.329,54.500 20.209,54.500 19.671 C 54.500 19.005,54.521 19.000,57.194 19.000 L 59.667 19.000 59.667 19.667 M73.500 23.583 L 73.500 28.167 72.917 28.167 L 72.333 28.167 72.333 23.583 L 72.333 19.000 72.917 19.000 L 73.500 19.000 73.500 23.583 M79.417 19.667 C 79.417 20.239,79.403 20.251,78.667 20.302 C 77.575 20.378,77.591 20.322,77.500 24.383 L 77.417 28.083 76.833 28.083 L 76.250 28.083 76.205 23.753 C 76.151 18.479,75.975 18.976,77.872 19.035 L 79.417 19.083 79.417 19.667 M83.333 19.583 C 83.333 20.139,83.306 20.167,82.750 20.167 C 82.194 20.167,82.167 20.139,82.167 19.583 C 82.167 19.028,82.194 19.000,82.750 19.000 C 83.306 19.000,83.333 19.028,83.333 19.583 M95.167 19.667 L 95.167 20.333 93.458 20.332 C 90.630 20.329,90.000 20.209,90.000 19.671 C 90.000 19.005,90.021 19.000,92.694 19.000 L 95.167 19.000 95.167 19.667 M108.968 19.625 L 108.917 20.250 106.583 20.302 C 105.300 20.331,103.706 20.305,103.042 20.246 L 101.833 20.138 101.833 19.569 L 101.833 19.000 105.427 19.000 L 109.020 19.000 108.968 19.625 M130.667 19.583 C 130.667 20.139,130.639 20.167,130.083 20.167 C 129.528 20.167,129.500 20.139,129.500 19.583 C 129.500 19.028,129.528 19.000,130.083 19.000 C 130.639 19.000,130.667 19.028,130.667 19.583 M36.184 20.959 C 36.248 21.027,36.353 21.858,36.419 22.804 L 36.538 24.525 33.727 24.409 C 30.625 24.282,30.620 24.280,30.696 23.480 C 30.747 22.953,30.796 22.910,31.473 22.820 C 32.342 22.704,32.494 22.499,32.497 21.433 L 32.500 20.616 34.284 20.725 C 35.265 20.785,36.120 20.890,36.184 20.959 M94.276 20.833 L 95.333 20.833 95.333 21.559 L 95.333 22.284 92.641 22.402 C 89.615 22.535,89.673 22.556,89.669 21.350 L 89.667 20.616 91.443 20.725 C 92.419 20.784,93.694 20.833,94.276 20.833 M20.333 24.587 L 20.333 28.173 16.792 28.128 L 13.250 28.083 13.250 27.500 L 13.250 26.917 15.905 26.871 C 18.949 26.818,19.001 26.797,18.997 25.605 C 18.993 24.230,19.052 24.257,15.923 24.197 L 13.167 24.144 13.167 23.597 L 13.167 23.050 14.692 22.942 C 15.531 22.882,16.754 22.833,17.409 22.833 C 18.806 22.833,19.000 22.697,19.000 21.717 L 19.000 21.000 19.667 21.000 L 20.333 21.000 20.333 24.587 M38.052 22.443 C 38.171 24.130,38.158 24.167,37.407 24.167 L 36.833 24.167 36.833 22.583 L 36.833 21.000 37.392 21.000 L 37.950 21.000 38.052 22.443 M49.833 24.583 L 49.833 28.167 49.250 28.167 L 48.667 28.167 48.667 24.583 L 48.667 21.000 49.250 21.000 L 49.833 21.000 49.833 24.583 M61.667 24.587 L 61.667 28.173 58.125 28.128 L 54.583 28.083 54.583 27.500 L 54.583 26.917 57.291 26.871 C 60.426 26.818,60.639 26.711,60.449 25.294 C 60.306 24.226,60.131 24.167,57.135 24.167 L 54.500 24.167 54.500 23.608 L 54.500 23.050 56.125 22.943 C 57.019 22.883,58.296 22.835,58.962 22.834 C 60.297 22.833,60.500 22.656,60.500 21.489 C 60.500 21.041,60.549 21.000,61.083 21.000 L 61.667 21.000 61.667 24.587 M81.411 22.409 C 81.548 24.052,81.504 24.167,80.740 24.167 L 80.167 24.167 80.167 22.583 L 80.167 21.000 80.730 21.000 L 81.294 21.000 81.411 22.409 M85.333 24.583 L 85.333 28.167 84.771 28.167 L 84.210 28.167 84.092 26.355 C 84.028 25.359,84.028 23.747,84.093 22.772 L 84.212 21.000 84.773 21.000 L 85.333 21.000 85.333 24.583 M89.333 21.837 C 89.333 22.974,89.512 23.028,92.846 22.891 C 95.745 22.771,95.780 22.758,95.863 21.748 C 95.914 21.112,95.943 21.081,96.542 21.032 L 97.167 20.980 97.167 22.573 L 97.167 24.167 93.620 24.167 C 89.530 24.167,89.386 24.207,89.301 25.378 C 89.251 26.063,89.233 26.083,88.667 26.083 L 88.083 26.083 88.037 23.542 L 87.991 21.000 88.662 21.000 L 89.333 21.000 89.333 21.837 M101.167 21.583 C 101.167 22.153,101.151 22.167,100.500 22.167 C 99.849 22.167,99.833 22.153,99.833 21.583 C 99.833 21.014,99.849 21.000,100.500 21.000 C 101.151 21.000,101.167 21.014,101.167 21.583 M128.667 21.583 C 128.667 22.139,128.639 22.167,128.083 22.167 C 127.528 22.167,127.500 22.139,127.500 21.583 C 127.500 21.028,127.528 21.000,128.083 21.000 C 128.639 21.000,128.667 21.028,128.667 21.583 M106.968 23.542 L 107.020 24.167 104.427 24.167 L 101.833 24.167 101.833 23.591 L 101.833 23.016 102.875 22.954 C 103.448 22.920,104.592 22.897,105.417 22.904 L 106.917 22.917 106.968 23.542 M18.292 24.759 C 18.414 24.796,18.500 25.104,18.500 25.500 C 18.500 26.331,18.658 26.283,15.458 26.410 L 12.833 26.513 12.833 25.510 L 12.833 24.506 15.458 24.600 C 16.902 24.652,18.177 24.723,18.292 24.759 M59.792 24.876 C 59.906 24.967,60.000 25.247,60.000 25.500 C 60.000 26.214,59.765 26.282,56.875 26.404 L 54.167 26.519 54.167 25.514 L 54.167 24.509 56.875 24.610 C 58.365 24.666,59.677 24.786,59.792 24.876 M111.628 24.708 C 111.158 25.072,111.027 28.080,111.470 28.317 C 112.863 29.063,113.544 28.429,113.401 26.524 C 113.255 24.599,112.615 23.944,111.628 24.708 M12.469 25.542 C 12.421 26.040,12.370 26.083,11.833 26.083 C 11.297 26.083,11.246 26.040,11.198 25.542 C 11.146 25.010,11.158 25.000,11.833 25.000 C 12.509 25.000,12.520 25.010,12.469 25.542 M53.833 25.593 C 53.833 26.473,52.616 26.424,52.531 25.542 C 52.480 25.011,52.492 25.000,53.156 25.000 C 53.821 25.000,53.833 25.011,53.833 25.593 M109.000 25.593 C 109.000 26.473,107.783 26.424,107.698 25.542 C 107.647 25.011,107.659 25.000,108.323 25.000 C 108.988 25.000,109.000 25.011,109.000 25.593 M112.965 26.542 L 112.917 28.083 112.333 28.083 L 111.750 28.083 111.702 26.542 L 111.654 25.000 112.333 25.000 L 113.013 25.000 112.965 26.542 M128.667 25.583 C 128.667 26.139,128.639 26.167,128.083 26.167 C 127.528 26.167,127.500 26.139,127.500 25.583 C 127.500 25.028,127.528 25.000,128.083 25.000 C 128.639 25.000,128.667 25.028,128.667 25.583 M26.167 27.511 C 26.167 28.174,26.156 28.187,25.625 28.136 C 24.742 28.050,24.694 26.833,25.573 26.833 C 26.156 26.833,26.167 26.846,26.167 27.511 M69.500 27.511 C 69.500 28.174,69.489 28.187,68.958 28.136 C 68.076 28.050,68.027 26.833,68.907 26.833 C 69.489 26.833,69.500 26.846,69.500 27.511 M97.167 27.503 L 97.167 28.173 93.625 28.128 L 90.083 28.083 90.032 27.458 L 89.980 26.833 93.573 26.833 L 97.167 26.833 97.167 27.503 M107.000 27.503 L 107.000 28.173 103.458 28.128 L 99.917 28.083 99.862 27.696 C 99.739 26.832,99.732 26.833,103.495 26.833 L 107.000 26.833 107.000 27.503 M120.750 27.500 C 120.750 28.247,119.632 28.427,119.528 27.696 C 119.434 27.030,119.616 26.807,120.207 26.864 C 120.706 26.912,120.750 26.963,120.750 27.500 M130.583 27.500 C 130.583 28.036,130.540 28.088,130.042 28.136 C 129.510 28.187,129.500 28.176,129.500 27.500 C 129.500 26.824,129.510 26.813,130.042 26.864 C 130.540 26.912,130.583 26.964,130.583 27.500 " stroke="none" fill="#a4a4a4" fill-rule="evenodd"></path><path id="path1" d="M5.226 0.628 C 1.967 0.662,0.995 0.722,0.851 0.896 C 0.550 1.258,0.516 43.867,0.815 44.228 C 1.150 44.632,398.835 44.650,399.170 44.246 C 399.337 44.045,399.377 39.807,399.364 23.621 C 399.344 -0.942,399.361 1.134,399.177 0.845 C 399.043 0.633,24.200 0.426,5.226 0.628 M398.750 22.583 L 398.750 43.917 200.000 43.917 L 1.250 43.917 1.207 22.750 C 1.184 11.108,1.200 1.490,1.244 1.375 C 1.307 1.208,41.153 1.175,200.036 1.208 L 398.750 1.250 398.750 22.583 M3.033 3.033 C 2.743 3.324,2.743 41.843,3.033 42.133 C 3.325 42.425,396.675 42.425,396.967 42.133 C 397.257 41.843,397.257 3.324,396.967 3.033 C 396.675 2.742,3.325 2.742,3.033 3.033 M396.750 22.583 L 396.750 41.917 200.000 41.917 L 3.250 41.917 3.207 22.750 C 3.184 12.208,3.200 3.490,3.244 3.375 C 3.307 3.208,42.753 3.175,200.036 3.208 L 396.750 3.250 396.750 22.583 M22.595 14.762 C 22.373 14.984,22.333 15.585,22.333 18.748 C 22.333 22.912,22.320 23.000,21.668 23.000 C 21.146 23.000,21.006 22.698,21.002 21.567 C 20.999 20.726,20.654 20.377,19.750 20.304 C 19.095 20.251,19.082 20.238,19.032 19.545 C 18.951 18.425,18.701 18.333,15.713 18.333 C 12.783 18.333,12.500 18.448,12.500 19.635 C 12.500 20.539,12.764 20.780,13.871 20.885 C 15.954 21.082,15.726 22.325,13.604 22.336 C 12.828 22.340,12.611 22.560,12.509 23.447 L 12.417 24.250 11.617 24.301 C 9.904 24.411,10.110 26.833,11.833 26.833 C 12.494 26.833,12.500 26.839,12.500 27.468 C 12.500 28.446,12.782 28.697,14.014 28.815 L 15.083 28.917 15.167 29.500 L 15.250 30.083 18.750 30.083 L 22.250 30.083 22.298 28.458 L 22.345 26.833 23.339 26.833 L 24.333 26.833 24.333 27.428 C 24.333 28.557,25.047 29.033,26.320 28.753 C 26.918 28.621,27.114 26.804,26.586 26.277 C 26.382 26.073,26.331 25.245,26.294 21.556 L 26.250 17.083 25.674 17.000 C 25.047 16.909,24.881 16.607,24.850 15.492 C 24.823 14.522,23.321 14.036,22.595 14.762 M40.367 14.700 C 40.225 14.842,40.162 15.940,40.150 18.492 C 40.131 22.697,40.097 22.898,39.391 22.967 C 38.824 23.023,38.667 22.665,38.667 21.322 C 38.667 20.583,38.517 20.457,37.500 20.338 L 36.750 20.250 36.701 19.500 C 36.631 18.452,36.405 18.333,34.468 18.333 C 32.525 18.333,32.167 18.543,32.167 19.677 L 32.167 20.353 31.542 20.302 C 30.935 20.252,30.915 20.229,30.866 19.545 C 30.804 18.700,30.384 18.333,29.475 18.333 C 28.332 18.333,28.333 18.329,28.333 23.324 C 28.333 28.739,28.320 28.833,27.563 28.833 C 27.017 28.833,27.000 28.854,27.000 29.500 C 27.000 30.146,27.017 30.167,27.563 30.167 C 27.873 30.167,28.219 30.279,28.333 30.417 C 28.470 30.581,28.842 30.667,29.423 30.667 C 30.650 30.667,30.833 30.766,30.833 31.434 C 30.833 31.983,30.853 32.000,31.500 32.000 L 32.167 32.000 32.167 30.406 C 32.167 28.044,31.997 28.167,35.256 28.167 L 38.000 28.167 38.000 27.500 C 38.000 26.851,37.985 26.833,37.424 26.833 C 36.902 26.833,36.839 26.781,36.743 26.272 C 36.518 25.074,36.635 24.917,37.750 24.917 L 38.750 24.917 38.802 25.542 C 38.850 26.128,38.888 26.167,39.406 26.167 C 40.005 26.167,40.167 26.506,40.167 27.761 C 40.167 28.506,40.658 28.833,41.777 28.833 L 42.647 28.833 42.698 29.458 C 42.747 30.052,42.780 30.083,43.333 30.083 L 43.917 30.083 44.000 27.305 C 44.094 24.166,44.039 24.313,45.163 24.205 C 46.312 24.094,46.490 23.061,45.375 22.968 L 44.750 22.917 44.700 21.956 C 44.642 20.836,44.791 20.707,45.885 20.937 C 46.515 21.069,46.588 21.136,46.636 21.625 C 46.683 22.117,46.739 22.167,47.241 22.167 C 47.967 22.167,47.995 22.292,47.998 25.605 C 48.000 28.731,47.987 28.704,49.567 28.833 L 50.583 28.917 50.636 29.551 C 50.685 30.156,50.714 30.184,51.219 30.135 L 51.750 30.083 51.833 28.500 L 51.917 26.917 52.852 26.867 L 53.788 26.818 53.875 27.590 C 53.988 28.594,54.113 28.696,55.366 28.816 C 56.416 28.917,56.417 28.917,56.500 29.500 L 56.583 30.083 60.083 30.083 L 63.583 30.083 63.628 26.542 L 63.673 23.000 63.107 23.000 C 62.498 23.000,62.337 22.675,62.331 21.437 C 62.327 20.661,62.107 20.444,61.220 20.342 L 60.417 20.250 60.324 19.447 C 60.200 18.364,60.127 18.339,57.157 18.336 C 54.250 18.333,54.050 18.397,53.892 19.372 C 53.733 20.348,54.103 20.763,55.233 20.880 C 57.311 21.094,57.031 22.333,54.905 22.333 C 54.237 22.333,53.833 22.820,53.833 23.626 C 53.833 24.290,53.595 24.410,52.581 24.258 C 51.862 24.151,51.833 24.124,51.833 23.573 C 51.833 23.033,51.801 23.000,51.271 23.000 C 50.665 23.000,50.504 22.673,50.497 21.437 C 50.494 20.661,50.274 20.444,49.387 20.342 L 48.583 20.250 48.534 19.500 C 48.463 18.423,48.267 18.333,45.978 18.333 L 44.020 18.333 43.968 17.708 C 43.922 17.152,43.862 17.077,43.417 17.027 C 42.793 16.956,42.672 16.768,42.669 15.864 C 42.665 14.613,41.196 13.871,40.367 14.700 M66.000 14.663 C 65.810 14.783,65.736 15.243,65.693 16.577 L 65.636 18.333 65.057 18.333 C 64.058 18.333,63.833 18.560,63.833 19.569 C 63.833 20.598,63.992 20.787,64.919 20.863 L 65.583 20.917 65.667 23.639 C 65.761 26.705,65.815 26.833,67.032 26.833 C 67.648 26.833,67.667 26.850,67.667 27.428 C 67.667 28.557,68.380 29.033,69.654 28.753 C 70.254 28.621,70.447 26.804,69.917 26.274 C 69.636 25.993,69.554 22.937,69.815 22.524 C 69.894 22.399,70.294 22.259,70.705 22.213 C 71.648 22.107,71.667 22.179,71.667 25.918 C 71.667 29.011,71.565 28.827,73.282 28.831 L 74.147 28.833 74.198 29.458 C 74.247 30.052,74.280 30.083,74.833 30.083 C 75.387 30.083,75.419 30.052,75.468 29.458 L 75.520 28.833 76.833 28.833 L 78.147 28.833 78.198 29.458 C 78.247 30.052,78.280 30.083,78.833 30.083 L 79.417 30.083 79.500 27.500 L 79.583 24.917 80.833 24.917 L 82.083 24.917 82.135 25.542 C 82.184 26.128,82.221 26.167,82.739 26.167 C 83.338 26.167,83.500 26.506,83.500 27.761 C 83.500 28.506,83.992 28.833,85.110 28.833 L 85.980 28.833 86.032 29.458 C 86.081 30.052,86.113 30.083,86.667 30.083 L 87.250 30.083 87.333 28.500 L 87.417 26.917 88.375 26.867 L 89.333 26.817 89.333 27.460 C 89.333 28.447,89.613 28.697,90.848 28.815 L 91.917 28.917 92.000 29.500 L 92.083 30.083 95.583 30.083 L 99.083 30.083 99.134 29.469 C 99.184 28.867,99.172 28.854,98.551 28.802 L 97.917 28.750 97.917 27.500 L 97.917 26.250 98.542 26.198 L 99.167 26.147 99.167 24.573 L 99.167 23.000 98.603 23.000 C 97.969 23.000,97.840 22.758,97.836 21.567 C 97.833 20.726,97.487 20.377,96.583 20.304 C 95.928 20.251,95.916 20.238,95.866 19.545 C 95.784 18.425,95.534 18.333,92.546 18.333 C 89.599 18.333,89.333 18.444,89.333 19.667 L 89.333 20.333 88.593 20.333 C 87.688 20.333,87.333 20.738,87.333 21.773 C 87.333 22.760,87.203 23.000,86.668 23.000 C 86.149 23.000,86.008 22.701,86.000 21.583 C 85.993 20.654,85.808 20.448,84.887 20.342 C 84.087 20.250,84.083 20.247,84.029 19.583 C 83.889 17.855,81.593 17.820,81.468 19.545 C 81.419 20.224,81.394 20.252,80.814 20.300 L 80.212 20.351 80.123 19.561 C 79.996 18.435,79.784 18.333,77.559 18.333 L 75.682 18.333 75.592 18.875 C 75.542 19.173,75.482 19.754,75.459 20.167 C 75.419 20.878,75.389 20.919,74.884 20.968 C 74.298 21.025,74.220 20.841,74.126 19.167 L 74.083 18.417 73.190 18.366 C 72.112 18.304,71.667 18.613,71.667 19.422 C 71.667 20.653,71.502 21.000,70.915 21.000 C 70.297 21.000,70.173 20.750,70.169 19.495 C 70.168 19.080,70.061 18.589,69.931 18.404 C 69.801 18.219,69.670 17.846,69.639 17.576 C 69.591 17.154,69.499 17.071,69.000 17.000 C 68.425 16.918,68.415 16.903,68.333 15.984 C 68.211 14.616,67.085 13.978,66.000 14.663 M71.867 14.700 C 71.757 14.810,71.667 15.255,71.667 15.688 C 71.667 16.781,71.953 17.029,73.145 16.966 L 74.083 16.917 74.134 16.047 C 74.208 14.759,74.009 14.500,72.944 14.500 C 72.462 14.500,71.977 14.590,71.867 14.700 M117.193 14.718 C 117.094 14.837,116.991 15.681,116.965 16.593 L 116.917 18.250 116.223 18.343 C 115.235 18.474,115.000 18.729,115.000 19.667 C 115.000 20.609,115.180 20.793,116.170 20.864 L 116.917 20.917 117.000 23.695 C 117.093 26.805,117.056 26.703,118.132 26.826 L 118.917 26.917 118.968 27.622 C 119.044 28.672,119.837 29.073,121.143 28.724 C 121.636 28.592,121.618 26.757,121.118 26.205 C 120.739 25.786,120.700 22.818,121.068 22.512 C 121.458 22.189,122.511 22.083,122.681 22.350 C 122.762 22.479,122.829 23.943,122.831 25.606 C 122.834 29.069,122.706 28.827,124.532 28.831 L 125.480 28.833 125.532 29.458 C 125.579 30.027,125.631 30.088,126.119 30.135 L 126.654 30.187 126.702 28.552 L 126.750 26.917 127.750 26.917 L 128.750 26.917 128.801 27.622 C 128.877 28.666,129.671 29.073,130.958 28.728 C 132.079 28.428,131.234 26.167,130.000 26.167 L 129.333 26.167 129.333 25.258 L 129.333 24.350 128.375 24.300 L 127.417 24.250 127.417 23.583 L 127.417 22.917 128.367 22.867 L 129.317 22.817 129.367 21.867 L 129.417 20.917 130.375 20.867 L 131.333 20.817 131.333 19.834 C 131.333 17.925,129.058 17.571,128.842 19.447 L 128.750 20.250 127.750 20.250 L 126.750 20.250 126.702 18.625 L 126.655 17.000 126.089 17.000 C 125.524 17.000,125.524 17.000,125.421 16.042 C 125.276 14.703,125.187 14.591,124.211 14.534 C 122.868 14.454,122.834 14.535,122.831 17.804 C 122.828 20.845,122.778 21.053,122.065 20.972 C 121.598 20.918,121.581 20.884,121.500 19.809 C 121.447 19.107,121.315 18.587,121.139 18.392 C 120.986 18.222,120.836 17.858,120.806 17.583 C 120.759 17.167,120.666 17.074,120.251 17.027 C 119.627 16.956,119.506 16.768,119.503 15.864 C 119.498 14.611,117.929 13.832,117.193 14.718 M24.428 15.013 C 24.719 15.334,24.747 15.762,24.807 20.846 L 24.872 26.333 25.510 26.333 C 26.510 26.333,27.085 27.558,26.405 28.238 C 25.757 28.886,24.667 28.463,24.667 27.564 C 24.667 26.637,24.540 26.500,23.682 26.500 C 23.252 26.500,22.812 26.412,22.704 26.304 C 22.373 25.973,22.624 15.149,22.968 14.875 C 23.367 14.558,24.078 14.626,24.428 15.013 M42.158 14.907 C 42.283 15.057,42.394 16.091,42.454 17.657 C 42.560 20.409,42.617 20.557,43.531 20.470 C 44.044 20.420,44.087 20.370,44.137 19.752 C 44.221 18.724,44.333 18.667,46.265 18.667 C 48.196 18.667,48.333 18.749,48.333 19.903 C 48.333 20.530,48.442 20.600,49.583 20.704 C 50.219 20.762,50.298 21.255,50.319 25.258 C 50.335 28.407,50.306 28.500,49.320 28.500 C 48.415 28.500,48.384 28.386,48.288 24.608 C 48.184 20.541,48.347 20.832,46.153 20.786 L 44.417 20.750 44.330 21.615 C 44.225 22.656,44.184 22.703,43.289 22.823 L 42.583 22.917 42.539 25.500 C 42.490 28.349,42.433 28.502,41.426 28.497 C 40.232 28.491,40.177 28.111,40.294 20.583 C 40.385 14.697,40.391 14.667,41.422 14.667 C 41.717 14.667,42.049 14.775,42.158 14.907 M67.660 14.825 C 67.825 14.930,67.958 15.525,68.076 16.698 L 68.250 18.417 68.833 18.471 C 69.635 18.546,70.000 18.921,70.000 19.667 C 70.000 20.412,69.635 20.787,68.833 20.862 L 68.250 20.917 68.250 23.583 L 68.250 26.250 68.833 26.305 C 70.343 26.446,70.513 28.500,69.015 28.500 C 68.227 28.500,68.038 28.288,67.970 27.330 L 67.917 26.583 67.170 26.530 C 66.004 26.447,66.000 26.437,66.000 23.596 C 66.000 20.824,65.950 20.667,65.062 20.667 C 64.377 20.667,64.000 20.289,64.000 19.605 C 64.000 18.909,64.258 18.667,65.000 18.667 C 65.895 18.667,66.000 18.463,66.000 16.729 C 66.000 14.823,66.589 14.148,67.660 14.825 M73.656 14.904 C 73.765 15.035,73.830 15.466,73.802 15.863 L 73.750 16.583 72.917 16.583 L 72.083 16.583 72.031 15.863 C 71.954 14.786,73.031 14.151,73.656 14.904 M118.963 14.875 C 119.056 14.990,119.187 15.758,119.253 16.583 C 119.390 18.300,119.496 18.500,120.265 18.500 C 121.705 18.500,121.531 20.745,120.081 20.863 L 119.417 20.917 119.417 23.583 L 119.417 26.250 120.083 26.300 C 121.509 26.407,121.676 28.505,120.258 28.497 C 119.495 28.494,119.277 28.270,119.176 27.387 L 119.083 26.583 118.333 26.531 C 117.267 26.457,117.259 26.435,117.167 23.451 L 117.083 20.750 116.419 20.696 C 114.960 20.577,114.801 18.667,116.250 18.667 C 117.051 18.667,117.167 18.428,117.167 16.771 C 117.167 15.614,117.229 15.207,117.442 14.971 C 117.759 14.621,118.706 14.561,118.963 14.875 M124.905 14.987 C 125.153 15.261,125.211 15.816,125.306 18.779 L 125.417 22.250 126.167 22.250 L 126.917 22.250 127.000 21.500 L 127.083 20.750 128.042 20.700 L 129.000 20.650 129.000 19.981 C 129.000 18.796,130.068 18.135,130.800 18.867 C 131.509 19.576,130.903 20.667,129.800 20.667 L 129.000 20.667 129.000 21.494 C 129.000 22.438,128.758 22.667,127.761 22.667 L 127.167 22.667 127.167 23.583 L 127.167 24.500 127.883 24.500 C 128.800 24.500,129.000 24.715,129.000 25.700 L 129.000 26.500 129.800 26.500 C 130.903 26.500,131.509 27.591,130.800 28.300 C 130.112 28.988,129.000 28.332,129.000 27.238 L 129.000 26.500 128.264 26.500 C 127.167 26.500,127.000 26.390,127.000 25.669 C 127.000 24.907,126.703 24.627,125.969 24.697 L 125.417 24.750 125.333 26.465 C 125.241 28.366,125.167 28.493,124.145 28.497 C 123.118 28.502,123.138 28.643,123.140 21.557 C 123.141 15.572,123.162 15.082,123.435 14.882 C 123.865 14.568,124.571 14.618,124.905 14.987 M74.232 17.238 C 73.996 17.853,74.235 18.249,74.875 18.302 L 75.500 18.353 75.500 17.677 C 75.500 16.959,74.475 16.604,74.232 17.238 M101.500 18.667 C 101.278 18.889,101.167 19.222,101.167 19.667 L 101.167 20.333 100.421 20.333 C 99.459 20.333,99.124 20.775,99.199 21.944 L 99.250 22.750 100.167 22.833 L 101.083 22.917 101.137 23.583 C 101.210 24.487,101.559 24.833,102.401 24.836 C 103.532 24.839,103.833 24.980,103.833 25.502 C 103.833 26.114,103.645 26.167,101.436 26.167 C 99.241 26.167,99.167 26.211,99.167 27.523 C 99.167 28.662,99.236 28.723,100.667 28.833 L 101.750 28.917 101.833 29.500 L 101.917 30.083 105.417 30.083 L 108.917 30.083 108.968 29.469 C 109.018 28.867,109.006 28.854,108.384 28.802 L 107.750 28.750 107.700 27.800 L 107.651 26.850 108.617 26.800 L 109.583 26.750 109.634 25.880 C 109.704 24.650,109.505 24.363,108.541 24.301 L 107.750 24.250 107.750 23.250 L 107.750 22.250 109.375 22.202 L 111.000 22.155 111.000 21.587 C 111.000 21.052,110.965 21.017,110.375 20.968 L 109.750 20.917 109.666 19.861 C 109.543 18.309,109.610 18.333,105.385 18.333 C 102.056 18.333,101.812 18.354,101.500 18.667 M18.467 18.867 C 18.577 18.977,18.667 19.337,18.667 19.667 C 18.667 20.427,18.910 20.667,19.680 20.667 C 20.677 20.667,20.715 20.801,20.800 24.643 C 20.900 29.142,21.302 28.741,16.795 28.625 C 12.844 28.523,12.833 28.520,12.833 27.313 L 12.833 26.500 13.625 26.477 C 14.060 26.465,15.317 26.409,16.417 26.352 L 18.417 26.250 18.417 25.500 L 18.417 24.750 16.167 24.645 C 14.929 24.587,13.673 24.531,13.375 24.520 C 12.839 24.500,12.833 24.491,12.833 23.673 C 12.833 22.573,12.931 22.533,15.980 22.396 L 18.500 22.282 18.500 21.584 L 18.500 20.885 15.888 20.772 C 14.402 20.708,13.180 20.581,13.055 20.476 C 12.779 20.247,12.764 19.136,13.033 18.867 C 13.313 18.587,18.187 18.587,18.467 18.867 M30.300 18.867 C 30.410 18.977,30.500 19.309,30.500 19.605 C 30.500 20.351,30.875 20.667,31.762 20.667 L 32.500 20.667 32.497 21.458 C 32.494 22.498,32.338 22.705,31.473 22.820 C 30.757 22.916,30.750 22.923,30.750 23.583 L 30.750 24.250 32.667 24.353 C 33.721 24.410,35.015 24.466,35.542 24.478 L 36.500 24.500 36.500 25.261 C 36.500 26.670,36.506 26.667,33.611 26.667 C 30.543 26.667,30.667 26.585,30.667 28.611 C 30.667 30.311,30.554 30.500,29.543 30.500 C 28.403 30.500,28.427 30.635,28.482 24.647 C 28.508 21.681,28.601 19.122,28.688 18.961 C 28.873 18.615,29.984 18.550,30.300 18.867 M36.300 18.867 C 36.410 18.977,36.500 19.381,36.500 19.766 C 36.500 20.537,36.656 20.667,37.591 20.667 C 38.307 20.667,38.426 20.898,38.559 22.555 C 38.700 24.293,38.579 24.500,37.427 24.500 L 36.532 24.500 36.413 22.747 C 36.272 20.680,36.462 20.858,34.265 20.724 L 32.500 20.616 32.500 19.841 C 32.500 19.415,32.590 18.977,32.700 18.867 C 32.972 18.594,36.028 18.594,36.300 18.867 M59.944 18.875 C 60.016 18.990,60.114 19.421,60.162 19.833 L 60.250 20.583 61.083 20.667 L 61.917 20.750 62.027 21.583 C 62.088 22.042,62.144 23.745,62.152 25.369 C 62.170 29.055,62.561 28.745,58.045 28.624 C 54.198 28.521,54.167 28.511,54.167 27.338 L 54.167 26.550 55.792 26.443 C 56.685 26.383,57.908 26.335,58.508 26.334 C 59.704 26.333,60.000 26.168,60.000 25.500 C 60.000 24.793,59.721 24.667,58.158 24.667 C 57.366 24.667,56.143 24.618,55.442 24.559 L 54.167 24.451 54.167 23.751 C 54.167 22.625,54.368 22.538,57.337 22.384 L 59.917 22.250 59.917 21.583 L 59.917 20.917 58.000 20.814 C 56.946 20.757,55.770 20.701,55.387 20.689 C 54.330 20.655,53.701 19.532,54.367 18.867 C 54.655 18.578,59.763 18.586,59.944 18.875 M73.859 19.667 C 74.063 21.394,74.018 28.082,73.800 28.300 C 73.578 28.522,72.529 28.566,72.215 28.367 C 72.068 28.273,72.001 27.002,71.965 23.614 C 71.911 18.445,71.869 18.627,73.083 18.707 L 73.750 18.750 73.859 19.667 M79.633 18.867 C 79.743 18.977,79.833 19.388,79.833 19.780 C 79.833 21.068,81.712 21.122,81.803 19.837 C 81.869 18.910,82.063 18.666,82.729 18.669 C 83.495 18.673,83.640 18.834,83.698 19.753 L 83.750 20.583 84.667 20.667 L 85.583 20.750 85.692 21.667 C 85.966 23.979,85.852 28.145,85.511 28.327 C 83.913 29.183,83.582 28.474,83.598 24.233 L 83.611 20.667 82.697 20.667 L 81.783 20.667 81.888 22.387 C 82.010 24.386,81.953 24.500,80.820 24.500 C 79.784 24.500,79.688 24.338,79.632 22.491 L 79.583 20.917 78.833 20.917 L 78.083 20.917 78.040 24.500 C 77.991 28.497,77.991 28.500,76.833 28.500 C 75.589 28.500,75.612 28.600,75.698 23.621 C 75.756 20.331,75.831 19.120,75.992 18.927 C 76.265 18.597,79.314 18.547,79.633 18.867 M95.236 18.768 C 95.406 18.833,95.500 19.074,95.500 19.445 C 95.500 20.392,95.741 20.667,96.571 20.667 C 97.443 20.667,97.452 20.683,97.601 22.660 C 97.762 24.790,97.997 24.666,93.771 24.669 C 89.832 24.672,89.788 24.683,89.863 25.600 L 89.917 26.250 93.487 26.295 C 97.504 26.346,97.500 26.344,97.500 27.500 C 97.500 28.729,97.497 28.730,93.574 28.625 C 89.736 28.522,89.708 28.513,89.634 27.362 L 89.583 26.583 88.754 26.531 C 87.436 26.448,87.437 26.448,87.553 23.609 C 87.670 20.768,87.714 20.667,88.854 20.667 L 89.667 20.667 89.669 21.375 C 89.673 22.553,89.622 22.535,92.641 22.402 L 95.333 22.284 95.333 21.559 L 95.333 20.833 94.276 20.833 C 93.694 20.833,92.419 20.784,91.443 20.725 L 89.667 20.616 89.667 19.841 C 89.667 19.415,89.757 18.977,89.867 18.867 C 90.077 18.656,94.722 18.570,95.236 18.768 M109.133 18.867 C 109.392 19.126,109.392 20.374,109.133 20.633 C 108.908 20.859,106.170 20.902,103.276 20.725 L 101.500 20.616 101.500 19.841 C 101.500 19.415,101.590 18.977,101.700 18.867 C 101.983 18.584,108.850 18.584,109.133 18.867 M101.500 21.601 L 101.500 22.535 104.059 22.415 C 107.077 22.274,107.333 22.345,107.333 23.326 C 107.333 24.349,107.449 24.500,108.234 24.500 C 109.090 24.500,109.333 24.721,109.333 25.500 C 109.333 26.257,109.091 26.500,108.333 26.500 C 107.555 26.500,107.333 26.743,107.333 27.596 C 107.333 28.715,107.280 28.728,103.407 28.625 C 99.625 28.524,99.500 28.488,99.500 27.500 C 99.500 26.576,99.602 26.548,103.550 26.417 L 107.183 26.296 107.133 25.523 L 107.083 24.750 104.536 24.641 C 101.642 24.516,101.500 24.458,101.500 23.396 L 101.500 22.667 100.822 22.667 C 99.812 22.667,99.500 22.437,99.500 21.694 C 99.500 20.869,99.736 20.667,100.700 20.667 L 101.500 20.667 101.500 21.601 M34.680 21.092 C 34.765 21.144,34.833 21.407,34.833 21.677 C 34.833 22.122,34.884 22.167,35.397 22.167 C 36.025 22.167,36.160 22.411,36.164 23.547 C 36.167 24.297,35.959 24.415,34.915 24.258 C 34.198 24.151,34.167 24.123,34.167 23.583 C 34.167 23.053,34.130 23.017,33.542 22.968 C 32.904 22.916,32.575 21.913,32.910 21.041 C 33.004 20.795,34.260 20.832,34.680 21.092 M83.473 21.228 C 83.656 22.195,83.328 23.021,82.780 22.968 C 82.220 22.914,81.788 21.792,82.057 21.091 C 82.213 20.684,83.391 20.798,83.473 21.228 M91.847 21.092 C 92.669 21.600,91.245 22.655,90.252 22.274 C 89.989 22.173,89.893 21.164,90.125 20.929 C 90.254 20.798,91.574 20.923,91.847 21.092 M103.680 21.092 C 104.450 21.568,103.607 22.333,102.313 22.333 C 101.832 22.333,101.576 21.317,101.958 20.929 C 102.087 20.798,103.408 20.923,103.680 21.092 M131.333 21.583 C 131.333 22.153,131.349 22.167,132.000 22.167 C 132.651 22.167,132.667 22.153,132.667 21.583 C 132.667 21.014,132.651 21.000,132.000 21.000 C 131.349 21.000,131.333 21.014,131.333 21.583 M129.333 23.583 C 129.333 24.153,129.349 24.167,130.000 24.167 C 130.651 24.167,130.667 24.153,130.667 23.583 C 130.667 23.014,130.651 23.000,130.000 23.000 C 129.349 23.000,129.333 23.014,129.333 23.583 M111.173 24.656 C 111.078 24.833,111.000 25.277,111.000 25.642 C 111.000 26.642,110.875 26.833,110.222 26.833 C 109.392 26.833,109.418 28.046,110.250 28.139 C 110.525 28.170,110.879 28.311,111.037 28.453 C 111.213 28.611,111.775 28.743,112.487 28.794 L 113.649 28.877 113.700 29.480 C 113.747 30.049,113.783 30.083,114.333 30.083 L 114.917 30.083 114.917 28.500 L 114.917 26.917 114.333 26.833 C 113.759 26.751,113.749 26.736,113.667 25.817 C 113.554 24.559,113.336 24.333,112.235 24.333 C 111.526 24.333,111.310 24.399,111.173 24.656 M12.833 25.500 L 12.833 26.500 12.033 26.500 C 11.070 26.500,10.833 26.298,10.833 25.475 C 10.833 24.727,11.119 24.512,12.125 24.505 L 12.833 24.500 12.833 25.500 M54.167 25.500 L 54.167 26.500 53.406 26.500 C 52.364 26.500,52.000 26.276,52.000 25.632 C 52.000 24.840,52.408 24.500,53.359 24.500 L 54.167 24.500 54.167 25.500 M113.047 24.737 C 113.447 25.138,113.594 28.019,113.227 28.287 C 112.870 28.548,111.931 28.564,111.470 28.317 C 111.027 28.080,111.158 25.072,111.628 24.708 C 111.989 24.429,112.754 24.444,113.047 24.737 M14.792 24.938 C 15.839 25.219,15.154 26.167,13.903 26.167 L 13.167 26.167 13.167 25.500 C 13.167 24.791,13.637 24.629,14.792 24.938 M56.134 24.941 C 57.052 25.187,56.548 26.076,55.458 26.133 L 54.500 26.183 54.500 25.508 C 54.500 24.789,54.965 24.628,56.134 24.941 M70.365 29.458 C 70.449 30.470,71.500 30.518,71.500 29.511 C 71.500 28.846,71.489 28.833,70.907 28.833 C 70.323 28.833,70.314 28.843,70.365 29.458 M121.532 29.458 C 121.581 30.052,121.613 30.083,122.167 30.083 C 122.720 30.083,122.753 30.052,122.802 29.458 L 122.853 28.833 122.167 28.833 L 121.480 28.833 121.532 29.458 M131.365 29.458 C 131.414 30.052,131.446 30.083,132.000 30.083 C 132.554 30.083,132.586 30.052,132.635 29.458 L 132.687 28.833 132.000 28.833 L 131.313 28.833 131.365 29.458 " stroke="none" fill="#3f3f3f" fill-rule="evenodd"></path><path id="path2" d="M23.000 20.677 L 23.000 26.187 23.625 26.135 L 24.250 26.083 24.294 20.625 L 24.338 15.167 23.669 15.167 L 23.000 15.167 23.000 20.677 M40.784 20.472 C 40.728 23.389,40.727 26.318,40.782 26.980 L 40.883 28.184 41.400 28.134 L 41.917 28.083 42.000 25.383 C 42.092 22.398,42.100 22.376,43.167 22.302 C 43.902 22.251,43.918 22.238,43.968 21.625 L 44.020 21.000 43.343 21.000 C 42.106 21.000,42.000 20.744,42.000 17.750 L 42.000 15.167 41.443 15.167 L 40.887 15.167 40.784 20.472 M66.333 16.896 C 66.333 18.860,66.283 18.951,65.163 19.030 C 63.919 19.119,63.933 20.073,65.181 20.221 C 66.318 20.355,66.238 20.142,66.333 23.305 L 66.417 26.083 67.000 26.083 L 67.583 26.083 67.629 23.428 C 67.681 20.441,67.721 20.333,68.770 20.333 L 69.500 20.333 69.500 19.667 C 69.500 19.002,69.498 19.000,68.845 19.000 C 67.809 19.000,67.667 18.737,67.667 16.821 L 67.667 15.167 67.000 15.167 L 66.333 15.167 66.333 16.896 M72.333 15.750 C 72.333 16.306,72.361 16.333,72.917 16.333 C 73.472 16.333,73.500 16.306,73.500 15.750 C 73.500 15.194,73.472 15.167,72.917 15.167 C 72.361 15.167,72.333 15.194,72.333 15.750 M117.640 16.923 C 117.576 18.903,117.521 18.993,116.375 18.997 C 115.229 19.002,115.279 20.080,116.431 20.209 C 117.570 20.338,117.577 20.358,117.636 23.425 L 117.689 26.167 118.250 26.167 L 118.811 26.167 118.864 23.430 C 118.923 20.368,118.889 20.464,119.965 20.340 C 120.733 20.252,120.751 20.237,120.802 19.625 L 120.853 19.000 120.103 19.000 C 119.021 19.000,118.833 18.663,118.833 16.713 L 118.833 15.167 118.265 15.167 L 117.697 15.167 117.640 16.923 M123.540 21.625 L 123.583 28.083 124.167 28.083 L 124.750 28.083 124.833 26.305 C 124.929 24.269,124.902 24.322,125.908 24.209 C 126.663 24.124,126.667 24.120,126.667 23.478 L 126.667 22.833 125.950 22.833 C 124.827 22.833,124.833 22.856,124.833 18.800 L 124.833 15.167 124.165 15.167 L 123.496 15.167 123.540 21.625 M13.167 19.560 C 13.167 20.225,13.633 20.329,16.625 20.332 L 18.333 20.333 18.333 19.667 L 18.333 19.000 15.750 19.000 L 13.167 19.000 13.167 19.560 M29.000 23.476 C 29.000 25.937,28.952 28.412,28.893 28.976 L 28.786 30.000 29.476 30.000 L 30.167 30.000 30.167 28.454 C 30.167 26.110,30.088 26.167,33.343 26.167 L 36.000 26.167 36.000 25.607 C 36.000 24.940,35.543 24.839,32.500 24.832 C 30.442 24.828,30.323 24.774,30.213 23.795 C 30.090 22.702,30.335 22.362,31.293 22.301 C 32.076 22.250,32.084 22.244,32.135 21.625 L 32.187 21.000 31.439 21.000 C 30.475 21.000,30.167 20.694,30.167 19.738 C 30.167 19.006,30.162 19.000,29.583 19.000 L 29.000 19.000 29.000 23.476 M32.944 19.111 C 32.219 19.836,33.164 20.328,35.292 20.332 L 36.000 20.333 36.000 19.667 L 36.000 19.000 34.528 19.000 C 33.718 19.000,33.006 19.050,32.944 19.111 M44.667 19.560 C 44.667 20.168,45.176 20.328,47.125 20.332 L 47.833 20.333 47.833 19.667 L 47.833 19.000 46.250 19.000 L 44.667 19.000 44.667 19.560 M54.611 19.111 C 54.550 19.172,54.500 19.424,54.500 19.671 C 54.500 20.209,55.130 20.329,57.958 20.332 L 59.667 20.333 59.667 19.667 L 59.667 19.000 57.194 19.000 C 55.835 19.000,54.672 19.050,54.611 19.111 M72.333 23.583 L 72.333 28.167 72.917 28.167 L 73.500 28.167 73.500 23.583 L 73.500 19.000 72.917 19.000 L 72.333 19.000 72.333 23.583 M76.244 19.205 C 76.198 19.324,76.181 21.371,76.205 23.753 L 76.250 28.083 76.833 28.083 L 77.417 28.083 77.500 24.383 C 77.591 20.322,77.575 20.378,78.667 20.302 C 79.403 20.251,79.417 20.239,79.417 19.667 L 79.417 19.083 77.872 19.035 C 76.721 19.000,76.306 19.043,76.244 19.205 M82.167 19.583 C 82.167 20.139,82.194 20.167,82.750 20.167 C 83.306 20.167,83.333 20.139,83.333 19.583 C 83.333 19.028,83.306 19.000,82.750 19.000 C 82.194 19.000,82.167 19.028,82.167 19.583 M90.111 19.111 C 90.050 19.172,90.000 19.424,90.000 19.671 C 90.000 20.209,90.630 20.329,93.458 20.332 L 95.167 20.333 95.167 19.667 L 95.167 19.000 92.694 19.000 C 91.335 19.000,90.172 19.050,90.111 19.111 M101.833 19.569 L 101.833 20.138 103.042 20.246 C 103.706 20.305,105.300 20.331,106.583 20.302 L 108.917 20.250 108.968 19.625 L 109.020 19.000 105.427 19.000 L 101.833 19.000 101.833 19.569 M129.500 19.583 C 129.500 20.139,129.528 20.167,130.083 20.167 C 130.639 20.167,130.667 20.139,130.667 19.583 C 130.667 19.028,130.639 19.000,130.083 19.000 C 129.528 19.000,129.500 19.028,129.500 19.583 M19.000 21.717 C 19.000 22.697,18.806 22.833,17.409 22.833 C 16.754 22.833,15.531 22.882,14.692 22.942 L 13.167 23.050 13.167 23.597 L 13.167 24.144 15.923 24.197 C 19.052 24.257,18.993 24.230,18.997 25.605 C 19.001 26.797,18.949 26.818,15.905 26.871 L 13.250 26.917 13.250 27.500 L 13.250 28.083 16.792 28.128 L 20.333 28.173 20.333 24.587 L 20.333 21.000 19.667 21.000 L 19.000 21.000 19.000 21.717 M36.833 22.583 L 36.833 24.167 37.407 24.167 C 38.158 24.167,38.171 24.130,38.052 22.443 L 37.950 21.000 37.392 21.000 L 36.833 21.000 36.833 22.583 M48.667 24.583 L 48.667 28.167 49.250 28.167 L 49.833 28.167 49.833 24.583 L 49.833 21.000 49.250 21.000 L 48.667 21.000 48.667 24.583 M60.500 21.489 C 60.500 22.656,60.297 22.833,58.962 22.834 C 58.296 22.835,57.019 22.883,56.125 22.943 L 54.500 23.050 54.500 23.608 L 54.500 24.167 57.135 24.167 C 60.131 24.167,60.306 24.226,60.449 25.294 C 60.639 26.711,60.426 26.818,57.291 26.871 L 54.583 26.917 54.583 27.500 L 54.583 28.083 58.125 28.128 L 61.667 28.173 61.667 24.587 L 61.667 21.000 61.083 21.000 C 60.549 21.000,60.500 21.041,60.500 21.489 M80.167 22.583 L 80.167 24.167 80.740 24.167 C 81.504 24.167,81.548 24.052,81.411 22.409 L 81.294 21.000 80.730 21.000 L 80.167 21.000 80.167 22.583 M84.093 22.772 C 84.028 23.747,84.028 25.359,84.092 26.355 L 84.210 28.167 84.771 28.167 L 85.333 28.167 85.333 24.583 L 85.333 21.000 84.773 21.000 L 84.212 21.000 84.093 22.772 M88.037 23.542 L 88.083 26.083 88.667 26.083 C 89.233 26.083,89.251 26.063,89.301 25.378 C 89.386 24.207,89.530 24.167,93.620 24.167 L 97.167 24.167 97.167 22.573 L 97.167 20.980 96.542 21.032 C 95.943 21.081,95.914 21.112,95.863 21.748 C 95.780 22.758,95.745 22.771,92.846 22.891 C 89.512 23.028,89.333 22.974,89.333 21.837 L 89.333 21.000 88.662 21.000 L 87.991 21.000 88.037 23.542 M99.833 21.583 C 99.833 22.153,99.849 22.167,100.500 22.167 C 101.151 22.167,101.167 22.153,101.167 21.583 C 101.167 21.014,101.151 21.000,100.500 21.000 C 99.849 21.000,99.833 21.014,99.833 21.583 M127.500 21.583 C 127.500 22.139,127.528 22.167,128.083 22.167 C 128.639 22.167,128.667 22.139,128.667 21.583 C 128.667 21.028,128.639 21.000,128.083 21.000 C 127.528 21.000,127.500 21.028,127.500 21.583 M102.875 22.954 L 101.833 23.016 101.833 23.591 L 101.833 24.167 104.427 24.167 L 107.020 24.167 106.968 23.542 L 106.917 22.917 105.417 22.904 C 104.592 22.897,103.448 22.920,102.875 22.954 M11.198 25.542 C 11.246 26.040,11.297 26.083,11.833 26.083 C 12.370 26.083,12.421 26.040,12.469 25.542 C 12.520 25.010,12.509 25.000,11.833 25.000 C 11.158 25.000,11.146 25.010,11.198 25.542 M52.531 25.542 C 52.616 26.424,53.833 26.473,53.833 25.593 C 53.833 25.011,53.821 25.000,53.156 25.000 C 52.492 25.000,52.480 25.011,52.531 25.542 M107.698 25.542 C 107.783 26.424,109.000 26.473,109.000 25.593 C 109.000 25.011,108.988 25.000,108.323 25.000 C 107.659 25.000,107.647 25.011,107.698 25.542 M111.702 26.542 L 111.750 28.083 112.333 28.083 L 112.917 28.083 112.965 26.542 L 113.013 25.000 112.333 25.000 L 111.654 25.000 111.702 26.542 M127.500 25.583 C 127.500 26.139,127.528 26.167,128.083 26.167 C 128.639 26.167,128.667 26.139,128.667 25.583 C 128.667 25.028,128.639 25.000,128.083 25.000 C 127.528 25.000,127.500 25.028,127.500 25.583 M25.032 27.458 C 25.115 28.470,26.167 28.518,26.167 27.511 C 26.167 26.846,26.156 26.833,25.573 26.833 C 24.989 26.833,24.981 26.843,25.032 27.458 M68.365 27.458 C 68.449 28.470,69.500 28.518,69.500 27.511 C 69.500 26.846,69.489 26.833,68.907 26.833 C 68.323 26.833,68.314 26.843,68.365 27.458 M90.032 27.458 L 90.083 28.083 93.625 28.128 L 97.167 28.173 97.167 27.503 L 97.167 26.833 93.573 26.833 L 89.980 26.833 90.032 27.458 M99.898 27.071 C 99.848 27.202,99.832 27.483,99.862 27.696 L 99.917 28.083 103.458 28.128 L 107.000 28.173 107.000 27.503 L 107.000 26.833 103.495 26.833 C 100.612 26.833,99.973 26.876,99.898 27.071 M119.569 27.061 C 119.330 27.684,119.563 28.083,120.167 28.083 C 121.038 28.083,121.076 26.948,120.207 26.864 C 119.843 26.829,119.633 26.894,119.569 27.061 M129.500 27.500 C 129.500 28.176,129.510 28.187,130.042 28.136 C 130.540 28.088,130.583 28.036,130.583 27.500 C 130.583 26.964,130.540 26.912,130.042 26.864 C 129.510 26.813,129.500 26.824,129.500 27.500 " stroke="none" fill="#dedede" fill-rule="evenodd"></path><path id="path3" d="M0.000 22.583 L 0.000 45.167 200.000 45.167 L 400.000 45.167 400.000 22.583 L 400.000 0.000 200.000 0.000 L 0.000 0.000 0.000 22.583 M399.177 0.845 C 399.361 1.134,399.344 -0.942,399.364 23.621 C 399.377 39.807,399.337 44.045,399.170 44.246 C 398.835 44.650,1.150 44.632,0.815 44.228 C 0.516 43.867,0.550 1.258,0.851 0.896 C 1.122 0.569,-7.769 0.582,204.222 0.595 C 372.996 0.605,399.047 0.638,399.177 0.845 M3.244 3.375 C 3.200 3.490,3.184 12.208,3.207 22.750 L 3.250 41.917 200.000 41.917 L 396.750 41.917 396.750 22.583 L 396.750 3.250 200.036 3.208 C 42.753 3.175,3.307 3.208,3.244 3.375 M24.633 14.700 C 24.743 14.810,24.841 15.166,24.850 15.492 C 24.881 16.607,25.047 16.909,25.674 17.000 L 26.250 17.083 26.294 21.556 C 26.331 25.245,26.382 26.073,26.586 26.277 C 27.114 26.804,26.918 28.621,26.320 28.753 C 25.047 29.033,24.333 28.557,24.333 27.428 L 24.333 26.833 23.339 26.833 L 22.345 26.833 22.298 28.458 L 22.250 30.083 18.750 30.083 L 15.250 30.083 15.167 29.500 L 15.083 28.917 14.014 28.815 C 12.782 28.697,12.500 28.446,12.500 27.468 C 12.500 26.839,12.494 26.833,11.833 26.833 C 10.110 26.833,9.904 24.411,11.617 24.301 L 12.417 24.250 12.509 23.447 C 12.611 22.560,12.828 22.340,13.604 22.336 C 15.726 22.325,15.954 21.082,13.871 20.885 C 12.764 20.780,12.500 20.539,12.500 19.635 C 12.500 18.448,12.783 18.333,15.713 18.333 C 18.701 18.333,18.951 18.425,19.032 19.545 C 19.082 20.238,19.095 20.251,19.750 20.304 C 20.654 20.377,20.999 20.726,21.002 21.567 C 21.006 22.698,21.146 23.000,21.668 23.000 C 22.320 23.000,22.333 22.912,22.333 18.748 C 22.333 14.481,22.327 14.500,23.645 14.500 C 24.079 14.500,24.523 14.590,24.633 14.700 M42.494 14.822 C 42.589 15.000,42.668 15.468,42.669 15.864 C 42.672 16.768,42.793 16.956,43.417 17.027 C 43.862 17.077,43.922 17.152,43.968 17.708 L 44.020 18.333 45.978 18.333 C 48.267 18.333,48.463 18.423,48.534 19.500 L 48.583 20.250 49.387 20.342 C 50.274 20.444,50.494 20.661,50.497 21.437 C 50.504 22.673,50.665 23.000,51.271 23.000 C 51.801 23.000,51.833 23.033,51.833 23.573 C 51.833 24.124,51.862 24.151,52.581 24.258 C 53.595 24.410,53.833 24.290,53.833 23.626 C 53.833 22.820,54.237 22.333,54.905 22.333 C 57.031 22.333,57.311 21.094,55.233 20.880 C 54.103 20.763,53.733 20.348,53.892 19.372 C 54.050 18.397,54.250 18.333,57.157 18.336 C 60.127 18.339,60.200 18.364,60.324 19.447 L 60.417 20.250 61.220 20.342 C 62.107 20.444,62.327 20.661,62.331 21.437 C 62.337 22.675,62.498 23.000,63.107 23.000 L 63.673 23.000 63.628 26.542 L 63.583 30.083 60.083 30.083 L 56.583 30.083 56.500 29.500 C 56.417 28.917,56.416 28.917,55.366 28.816 C 54.113 28.696,53.988 28.594,53.875 27.590 L 53.788 26.818 52.852 26.867 L 51.917 26.917 51.833 28.500 L 51.750 30.083 51.219 30.135 C 50.714 30.184,50.685 30.156,50.636 29.551 L 50.583 28.917 49.567 28.833 C 47.987 28.704,48.000 28.731,47.998 25.605 C 47.995 22.292,47.967 22.167,47.241 22.167 C 46.739 22.167,46.683 22.117,46.636 21.625 C 46.588 21.136,46.515 21.069,45.885 20.937 C 44.791 20.707,44.642 20.836,44.700 21.956 L 44.750 22.917 45.375 22.968 C 46.490 23.061,46.312 24.094,45.163 24.205 C 44.039 24.313,44.094 24.166,44.000 27.305 L 43.917 30.083 43.333 30.083 C 42.780 30.083,42.747 30.052,42.698 29.458 L 42.647 28.833 41.777 28.833 C 40.658 28.833,40.167 28.506,40.167 27.761 C 40.167 26.506,40.005 26.167,39.406 26.167 C 38.888 26.167,38.850 26.128,38.802 25.542 L 38.750 24.917 37.750 24.917 C 36.635 24.917,36.518 25.074,36.743 26.272 C 36.839 26.781,36.902 26.833,37.424 26.833 C 37.985 26.833,38.000 26.851,38.000 27.500 L 38.000 28.167 35.256 28.167 C 31.997 28.167,32.167 28.044,32.167 30.406 L 32.167 32.000 31.500 32.000 C 30.853 32.000,30.833 31.983,30.833 31.434 C 30.833 30.766,30.650 30.667,29.423 30.667 C 28.842 30.667,28.470 30.581,28.333 30.417 C 28.219 30.279,27.873 30.167,27.563 30.167 C 27.017 30.167,27.000 30.146,27.000 29.500 C 27.000 28.854,27.017 28.833,27.563 28.833 C 28.320 28.833,28.333 28.739,28.333 23.324 C 28.333 18.329,28.332 18.333,29.475 18.333 C 30.384 18.333,30.804 18.700,30.866 19.545 C 30.915 20.229,30.935 20.252,31.542 20.302 L 32.167 20.353 32.167 19.677 C 32.167 18.543,32.525 18.333,34.468 18.333 C 36.405 18.333,36.631 18.452,36.701 19.500 L 36.750 20.250 37.500 20.338 C 38.517 20.457,38.667 20.583,38.667 21.322 C 38.667 22.665,38.824 23.023,39.391 22.967 C 40.097 22.898,40.131 22.697,40.150 18.492 C 40.162 15.940,40.225 14.842,40.367 14.700 C 40.712 14.354,42.292 14.445,42.494 14.822 M68.021 14.776 C 68.147 14.927,68.287 15.471,68.333 15.984 C 68.415 16.903,68.425 16.918,69.000 17.000 C 69.499 17.071,69.591 17.154,69.639 17.576 C 69.670 17.846,69.801 18.219,69.931 18.404 C 70.061 18.589,70.168 19.080,70.169 19.495 C 70.173 20.750,70.297 21.000,70.915 21.000 C 71.502 21.000,71.667 20.653,71.667 19.422 C 71.667 18.613,72.112 18.304,73.190 18.366 L 74.083 18.417 74.126 19.167 C 74.220 20.841,74.298 21.025,74.884 20.968 C 75.389 20.919,75.419 20.878,75.459 20.167 C 75.482 19.754,75.542 19.173,75.592 18.875 L 75.682 18.333 77.559 18.333 C 79.784 18.333,79.996 18.435,80.123 19.561 L 80.212 20.351 80.814 20.300 C 81.394 20.252,81.419 20.224,81.468 19.545 C 81.593 17.820,83.889 17.855,84.029 19.583 C 84.083 20.247,84.087 20.250,84.887 20.342 C 85.808 20.448,85.993 20.654,86.000 21.583 C 86.008 22.701,86.149 23.000,86.668 23.000 C 87.203 23.000,87.333 22.760,87.333 21.773 C 87.333 20.738,87.688 20.333,88.593 20.333 L 89.333 20.333 89.333 19.667 C 89.333 18.444,89.599 18.333,92.546 18.333 C 95.534 18.333,95.784 18.425,95.866 19.545 C 95.916 20.238,95.928 20.251,96.583 20.304 C 97.487 20.377,97.833 20.726,97.836 21.567 C 97.840 22.758,97.969 23.000,98.603 23.000 L 99.167 23.000 99.167 24.573 L 99.167 26.147 98.542 26.198 L 97.917 26.250 97.917 27.500 L 97.917 28.750 98.551 28.802 C 99.172 28.854,99.184 28.867,99.134 29.469 L 99.083 30.083 95.583 30.083 L 92.083 30.083 92.000 29.500 L 91.917 28.917 90.848 28.815 C 89.613 28.697,89.333 28.447,89.333 27.460 L 89.333 26.817 88.375 26.867 L 87.417 26.917 87.333 28.500 L 87.250 30.083 86.667 30.083 C 86.113 30.083,86.081 30.052,86.032 29.458 L 85.980 28.833 85.110 28.833 C 83.992 28.833,83.500 28.506,83.500 27.761 C 83.500 26.506,83.338 26.167,82.739 26.167 C 82.221 26.167,82.184 26.128,82.135 25.542 L 82.083 24.917 80.833 24.917 L 79.583 24.917 79.500 27.500 L 79.417 30.083 78.833 30.083 C 78.280 30.083,78.247 30.052,78.198 29.458 L 78.147 28.833 76.833 28.833 L 75.520 28.833 75.468 29.458 C 75.419 30.052,75.387 30.083,74.833 30.083 C 74.280 30.083,74.247 30.052,74.198 29.458 L 74.147 28.833 73.282 28.831 C 71.565 28.827,71.667 29.011,71.667 25.918 C 71.667 22.179,71.648 22.107,70.705 22.213 C 70.294 22.259,69.894 22.399,69.815 22.524 C 69.554 22.937,69.636 25.993,69.917 26.274 C 70.447 26.804,70.254 28.621,69.654 28.753 C 68.380 29.033,67.667 28.557,67.667 27.428 C 67.667 26.850,67.648 26.833,67.032 26.833 C 65.815 26.833,65.761 26.705,65.667 23.639 L 65.583 20.917 64.919 20.863 C 63.203 20.723,63.334 18.333,65.057 18.333 L 65.636 18.333 65.693 16.577 C 65.758 14.581,65.806 14.507,67.021 14.503 C 67.538 14.501,67.868 14.591,68.021 14.776 M74.003 14.838 C 74.102 15.024,74.161 15.568,74.134 16.047 L 74.083 16.917 73.145 16.966 C 71.953 17.029,71.667 16.781,71.667 15.688 C 71.667 14.684,71.864 14.500,72.944 14.500 C 73.655 14.500,73.856 14.564,74.003 14.838 M119.327 14.822 C 119.422 15.000,119.501 15.468,119.503 15.864 C 119.506 16.768,119.627 16.956,120.251 17.027 C 120.666 17.074,120.759 17.167,120.806 17.583 C 120.836 17.858,120.986 18.222,121.139 18.392 C 121.315 18.587,121.447 19.107,121.500 19.809 C 121.581 20.884,121.598 20.918,122.065 20.972 C 122.778 21.053,122.828 20.845,122.831 17.804 C 122.834 14.535,122.868 14.454,124.211 14.534 C 125.187 14.591,125.276 14.703,125.421 16.042 C 125.524 17.000,125.524 17.000,126.089 17.000 L 126.655 17.000 126.702 18.625 L 126.750 20.250 127.750 20.250 L 128.750 20.250 128.842 19.447 C 129.058 17.571,131.333 17.925,131.333 19.834 L 131.333 20.817 130.375 20.867 L 129.417 20.917 129.367 21.867 L 129.317 22.817 128.367 22.867 L 127.417 22.917 127.417 23.583 L 127.417 24.250 128.375 24.300 L 129.333 24.350 129.333 25.258 L 129.333 26.167 130.000 26.167 C 131.234 26.167,132.079 28.428,130.958 28.728 C 129.671 29.073,128.877 28.666,128.801 27.622 L 128.750 26.917 127.750 26.917 L 126.750 26.917 126.702 28.552 L 126.654 30.187 126.119 30.135 C 125.631 30.088,125.579 30.027,125.532 29.458 L 125.480 28.833 124.532 28.831 C 122.706 28.827,122.834 29.069,122.831 25.606 C 122.829 23.943,122.762 22.479,122.681 22.350 C 122.511 22.083,121.458 22.189,121.068 22.512 C 120.700 22.818,120.739 25.786,121.118 26.205 C 121.618 26.757,121.636 28.592,121.143 28.724 C 119.837 29.073,119.044 28.672,118.968 27.622 L 118.917 26.917 118.132 26.826 C 117.056 26.703,117.093 26.805,117.000 23.695 L 116.917 20.917 116.170 20.864 C 114.405 20.738,114.451 18.579,116.223 18.343 L 116.917 18.250 116.965 16.593 C 116.991 15.681,117.094 14.837,117.193 14.718 C 117.496 14.353,119.119 14.432,119.327 14.822 M75.500 17.677 L 75.500 18.353 74.875 18.302 C 73.825 18.215,73.859 17.000,74.911 17.000 C 75.488 17.000,75.500 17.013,75.500 17.677 M109.259 18.569 C 109.500 18.745,109.603 19.074,109.666 19.861 L 109.750 20.917 110.375 20.968 C 110.965 21.017,111.000 21.052,111.000 21.587 L 111.000 22.155 109.375 22.202 L 107.750 22.250 107.750 23.250 L 107.750 24.250 108.541 24.301 C 109.505 24.363,109.704 24.650,109.634 25.880 L 109.583 26.750 108.617 26.800 L 107.651 26.850 107.700 27.800 L 107.750 28.750 108.384 28.802 C 109.006 28.854,109.018 28.867,108.968 29.469 L 108.917 30.083 105.417 30.083 L 101.917 30.083 101.833 29.500 L 101.750 28.917 100.667 28.833 C 99.236 28.723,99.167 28.662,99.167 27.523 C 99.167 26.211,99.241 26.167,101.436 26.167 C 103.645 26.167,103.833 26.114,103.833 25.502 C 103.833 24.980,103.532 24.839,102.401 24.836 C 101.559 24.833,101.210 24.487,101.137 23.583 L 101.083 22.917 100.167 22.833 L 99.250 22.750 99.199 21.944 C 99.124 20.775,99.459 20.333,100.421 20.333 L 101.167 20.333 101.167 19.667 C 101.167 18.380,101.314 18.333,105.385 18.333 C 108.186 18.333,109.005 18.383,109.259 18.569 M32.910 21.041 C 32.575 21.913,32.904 22.916,33.542 22.968 C 34.130 23.017,34.167 23.053,34.167 23.583 C 34.167 24.123,34.198 24.151,34.915 24.258 C 35.959 24.415,36.167 24.297,36.164 23.547 C 36.160 22.411,36.025 22.167,35.397 22.167 C 34.884 22.167,34.833 22.122,34.833 21.677 C 34.833 21.089,34.749 21.028,33.767 20.893 C 33.174 20.812,32.985 20.844,32.910 21.041 M82.057 21.091 C 81.788 21.792,82.220 22.914,82.780 22.968 C 83.328 23.021,83.656 22.195,83.473 21.228 C 83.391 20.798,82.213 20.684,82.057 21.091 M90.125 20.929 C 89.893 21.164,89.989 22.173,90.252 22.274 C 91.245 22.655,92.669 21.600,91.847 21.092 C 91.574 20.923,90.254 20.798,90.125 20.929 M101.958 20.929 C 101.576 21.317,101.832 22.333,102.313 22.333 C 104.209 22.333,104.617 21.145,102.805 20.899 C 102.408 20.846,102.027 20.859,101.958 20.929 M132.667 21.583 C 132.667 22.153,132.651 22.167,132.000 22.167 C 131.349 22.167,131.333 22.153,131.333 21.583 C 131.333 21.014,131.349 21.000,132.000 21.000 C 132.651 21.000,132.667 21.014,132.667 21.583 M130.667 23.583 C 130.667 24.153,130.651 24.167,130.000 24.167 C 129.349 24.167,129.333 24.153,129.333 23.583 C 129.333 23.014,129.349 23.000,130.000 23.000 C 130.651 23.000,130.667 23.014,130.667 23.583 M113.355 24.609 C 113.480 24.761,113.621 25.304,113.667 25.817 C 113.749 26.736,113.759 26.751,114.333 26.833 L 114.917 26.917 114.917 28.500 L 114.917 30.083 114.333 30.083 C 113.783 30.083,113.747 30.049,113.700 29.480 L 113.649 28.877 112.487 28.794 C 111.775 28.743,111.213 28.611,111.037 28.453 C 110.879 28.311,110.525 28.170,110.250 28.139 C 109.418 28.046,109.392 26.833,110.222 26.833 C 110.875 26.833,111.000 26.642,111.000 25.642 C 111.000 24.389,112.592 23.691,113.355 24.609 M13.167 25.500 L 13.167 26.167 13.903 26.167 C 15.154 26.167,15.839 25.219,14.792 24.938 C 13.637 24.629,13.167 24.791,13.167 25.500 M54.500 25.508 L 54.500 26.183 55.458 26.133 C 57.220 26.041,56.912 24.842,55.125 24.836 C 54.505 24.833,54.500 24.839,54.500 25.508 M71.500 29.511 C 71.500 30.174,71.489 30.187,70.958 30.136 C 70.076 30.050,70.027 28.833,70.907 28.833 C 71.489 28.833,71.500 28.846,71.500 29.511 M122.802 29.458 C 122.753 30.052,122.720 30.083,122.167 30.083 C 121.613 30.083,121.581 30.052,121.532 29.458 L 121.480 28.833 122.167 28.833 L 122.853 28.833 122.802 29.458 M132.635 29.458 C 132.586 30.052,132.554 30.083,132.000 30.083 C 131.446 30.083,131.414 30.052,131.365 29.458 L 131.313 28.833 132.000 28.833 L 132.687 28.833 132.635 29.458 " stroke="none" fill="#000000" fill-rule="evenodd"></path></g></svg>